<?xml version="1.0" encoding="UTF-8"?>
<mxfile host="Electron" modified="2022-12-02T19:01:31.979Z" agent="5.0 (Macintosh; Intel Mac OS X 10_15_7) AppleWebKit/537.36 (KHTML, like Gecko) draw.io/18.0.6 Chrome/100.0.4896.143 Electron/18.2.3 Safari/537.36" etag="uFbokjKRX_KWEw_K8ajv" version="18.0.6" type="device">
  <diagram id="NUCnFcjX5vmZH2qqssct" name="Page-1">
    <mxGraphModel dx="604" dy="387" grid="1" gridSize="10" guides="1" tooltips="1" connect="1" arrows="1" fold="1" page="1" pageScale="1" pageWidth="850" pageHeight="1100" math="0" shadow="0">
      <root>
        <mxCell id="0" />
        <mxCell id="1" parent="0" />
        <mxCell id="fJX46pt8jqgSaC9i8CMT-1" value="" style="rounded=1;whiteSpace=wrap;html=1;fillColor=#f5f5f5;strokeColor=#666666;fontColor=#333333;" vertex="1" parent="1">
          <mxGeometry x="290" y="310" width="370" height="220" as="geometry" />
        </mxCell>
        <mxCell id="fJX46pt8jqgSaC9i8CMT-18" style="edgeStyle=orthogonalEdgeStyle;rounded=0;orthogonalLoop=1;jettySize=auto;html=1;exitX=1;exitY=0.5;exitDx=0;exitDy=0;" edge="1" parent="1" source="fJX46pt8jqgSaC9i8CMT-15">
          <mxGeometry relative="1" as="geometry">
            <mxPoint x="730" y="381" as="targetPoint" />
            <Array as="points">
              <mxPoint x="710" y="381" />
              <mxPoint x="780" y="381" />
            </Array>
          </mxGeometry>
        </mxCell>
        <mxCell id="fJX46pt8jqgSaC9i8CMT-15" value="" style="rounded=1;whiteSpace=wrap;html=1;fillColor=#f8cecc;strokeColor=#b85450;" vertex="1" parent="1">
          <mxGeometry x="520" y="340" width="120" height="82.5" as="geometry" />
        </mxCell>
        <mxCell id="fJX46pt8jqgSaC9i8CMT-9" value="build variable bindings" style="rounded=1;whiteSpace=wrap;html=1;fillColor=#dae8fc;strokeColor=#6c8ebf;" vertex="1" parent="1">
          <mxGeometry x="540" y="354.25" width="90" height="50" as="geometry" />
        </mxCell>
        <mxCell id="fJX46pt8jqgSaC9i8CMT-2" value="cache" style="shape=cylinder3;whiteSpace=wrap;html=1;boundedLbl=1;backgroundOutline=1;size=15;fillColor=#ffe6cc;strokeColor=#d79b00;" vertex="1" parent="1">
          <mxGeometry x="390" y="350" width="60" height="80" as="geometry" />
        </mxCell>
        <mxCell id="fJX46pt8jqgSaC9i8CMT-6" style="edgeStyle=orthogonalEdgeStyle;rounded=0;orthogonalLoop=1;jettySize=auto;html=1;exitX=1;exitY=0.5;exitDx=0;exitDy=0;entryX=0.5;entryY=1;entryDx=0;entryDy=0;" edge="1" parent="1" source="fJX46pt8jqgSaC9i8CMT-24" target="fJX46pt8jqgSaC9i8CMT-15">
          <mxGeometry relative="1" as="geometry">
            <mxPoint x="470" y="490" as="sourcePoint" />
            <mxPoint x="570" y="410" as="targetPoint" />
          </mxGeometry>
        </mxCell>
        <mxCell id="fJX46pt8jqgSaC9i8CMT-5" value="" style="endArrow=classic;html=1;rounded=0;entryX=0;entryY=0.5;entryDx=0;entryDy=0;edgeStyle=orthogonalEdgeStyle;entryPerimeter=0;" edge="1" parent="1" target="fJX46pt8jqgSaC9i8CMT-2">
          <mxGeometry width="50" height="50" relative="1" as="geometry">
            <mxPoint x="230" y="440" as="sourcePoint" />
            <mxPoint x="430" y="470" as="targetPoint" />
            <Array as="points">
              <mxPoint x="230" y="440" />
              <mxPoint x="330" y="440" />
              <mxPoint x="330" y="390" />
            </Array>
          </mxGeometry>
        </mxCell>
        <mxCell id="fJX46pt8jqgSaC9i8CMT-8" style="edgeStyle=orthogonalEdgeStyle;rounded=0;orthogonalLoop=1;jettySize=auto;html=1;exitX=0;exitY=0.5;exitDx=0;exitDy=0;entryX=1;entryY=0.5;entryDx=0;entryDy=0;entryPerimeter=0;" edge="1" parent="1" source="fJX46pt8jqgSaC9i8CMT-7" target="fJX46pt8jqgSaC9i8CMT-2">
          <mxGeometry relative="1" as="geometry">
            <Array as="points">
              <mxPoint x="520" y="390" />
            </Array>
          </mxGeometry>
        </mxCell>
        <mxCell id="fJX46pt8jqgSaC9i8CMT-7" value="build variable bindings" style="rounded=1;whiteSpace=wrap;html=1;fillColor=#dae8fc;strokeColor=#6c8ebf;" vertex="1" parent="1">
          <mxGeometry x="530" y="364.25" width="90" height="50" as="geometry" />
        </mxCell>
        <mxCell id="fJX46pt8jqgSaC9i8CMT-10" value="gNMI update" style="text;html=1;strokeColor=none;fillColor=none;align=center;verticalAlign=middle;whiteSpace=wrap;rounded=0;" vertex="1" parent="1">
          <mxGeometry x="230" y="400" width="60" height="30" as="geometry" />
        </mxCell>
        <mxCell id="fJX46pt8jqgSaC9i8CMT-11" value="1.b)" style="text;html=1;strokeColor=none;fillColor=none;align=center;verticalAlign=middle;whiteSpace=wrap;rounded=0;" vertex="1" parent="1">
          <mxGeometry x="320" y="460" width="60" height="30" as="geometry" />
        </mxCell>
        <mxCell id="fJX46pt8jqgSaC9i8CMT-12" value="1.a)" style="text;html=1;strokeColor=none;fillColor=none;align=center;verticalAlign=middle;whiteSpace=wrap;rounded=0;" vertex="1" parent="1">
          <mxGeometry x="320" y="360" width="60" height="30" as="geometry" />
        </mxCell>
        <mxCell id="fJX46pt8jqgSaC9i8CMT-13" value="2)" style="text;html=1;strokeColor=none;fillColor=none;align=center;verticalAlign=middle;whiteSpace=wrap;rounded=0;" vertex="1" parent="1">
          <mxGeometry x="530" y="460" width="60" height="30" as="geometry" />
        </mxCell>
        <mxCell id="fJX46pt8jqgSaC9i8CMT-14" value="3)" style="text;html=1;strokeColor=none;fillColor=none;align=center;verticalAlign=middle;whiteSpace=wrap;rounded=0;" vertex="1" parent="1">
          <mxGeometry x="470" y="360" width="40" height="30" as="geometry" />
        </mxCell>
        <mxCell id="fJX46pt8jqgSaC9i8CMT-22" value="" style="endArrow=classic;html=1;rounded=0;entryX=0;entryY=0.5;entryDx=0;entryDy=0;edgeStyle=orthogonalEdgeStyle;" edge="1" parent="1" target="fJX46pt8jqgSaC9i8CMT-24">
          <mxGeometry width="50" height="50" relative="1" as="geometry">
            <mxPoint x="230" y="440" as="sourcePoint" />
            <mxPoint x="390" y="490" as="targetPoint" />
            <Array as="points">
              <mxPoint x="330" y="440" />
              <mxPoint x="330" y="490" />
            </Array>
          </mxGeometry>
        </mxCell>
        <mxCell id="fJX46pt8jqgSaC9i8CMT-23" value="SNMP Trap" style="text;html=1;strokeColor=none;fillColor=none;align=center;verticalAlign=middle;whiteSpace=wrap;rounded=0;" vertex="1" parent="1">
          <mxGeometry x="660" y="345" width="60" height="30" as="geometry" />
        </mxCell>
        <mxCell id="fJX46pt8jqgSaC9i8CMT-24" value="trigger &lt;br&gt;trap" style="rhombus;whiteSpace=wrap;html=1;align=center;fillColor=#f8cecc;strokeColor=#b85450;" vertex="1" parent="1">
          <mxGeometry x="382.5" y="455" width="75" height="70" as="geometry" />
        </mxCell>
        <mxCell id="fJX46pt8jqgSaC9i8CMT-25" value="Yes" style="text;html=1;strokeColor=none;fillColor=none;align=center;verticalAlign=middle;whiteSpace=wrap;rounded=0;" vertex="1" parent="1">
          <mxGeometry x="450" y="460" width="60" height="30" as="geometry" />
        </mxCell>
      </root>
    </mxGraphModel>
  </diagram>
</mxfile>
